<svg id="bold" enable-background="new 0 0 24 24" viewBox="0 0 24 24" width="3rem" height="3rem" xmlns="http://www.w3.org/2000/svg"><g><path d="m21.25 3h-18.5c-1.517 0-2.75 1.233-2.75 2.75v12.5c0 1.517 1.233 2.75 2.75 2.75h18.5c1.517 0 2.75-1.233 2.75-2.75v-12.5c0-1.517-1.233-2.75-2.75-2.75zm-16.75 8c1.379 0 2.5 1.122 2.5 2.5s-1.121 2.5-2.5 2.5h-1.5c-.553 0-1-.448-1-1s.447-1 1-1h1.5c.275 0 .5-.224.5-.5s-.225-.5-.5-.5c-1.379 0-2.5-1.122-2.5-2.5s1.121-2.5 2.5-2.5h1.5c.553 0 1 .448 1 1s-.447 1-1 1h-1.5c-.275 0-.5.224-.5.5s.225.5.5.5zm10.5 2.5c0 .336-.069.656-.189.949.263.389.241.914-.104 1.258-.195.195-.451.293-.707.293-.196 0-.383-.075-.551-.189-.293.12-.613.189-.949.189h-1c-1.379 0-2.5-1.122-2.5-2.5v-3c0-1.378 1.121-2.5 2.5-2.5h1c1.379 0 2.5 1.122 2.5 2.5zm6 2.5h-3c-.553 0-1-.448-1-1v-6c0-.552.447-1 1-1s1 .448 1 1v5h2c.553 0 1 .448 1 1s-.447 1-1 1z"/><path d="m11.793 12.793c.33-.33.824-.364 1.207-.138v-2.155c0-.276-.225-.5-.5-.5h-1c-.275 0-.5.224-.5.5v3c0 .276.225.5.5.5h.155c-.226-.383-.192-.878.138-1.207z"/></g></svg>